<?xml version="1.0" encoding="UTF-8"?>
<svg id="Layer_1" data-name="Layer 1" xmlns="http://www.w3.org/2000/svg" viewBox="0 0 2048 2048">
  <defs>
    <style>
      .cls-1 {
        fill: #fff;
      }
    </style>
  </defs>
  <path class="cls-1" d="M1853.24,1060.97c48.81,55.63,75.48,122.11,75.74,195.61.23,65.18-14.31,123.07-52.71,176.15-53.75,74.29-134.5,128.65-230.82,128.96l-629.11,2.1.04-398.47-346.54-.29-.16,246.95-131.33,114.1-.06.04-67.42,58.59-73.41.2h-36.69v-766.77l177.58-123.73v505.56l.06,271.02,89.9-77.78-.16-271.41,429.37.14.37,398.67,118.72-.06-.04-917.62-118.62-.22-.23,399.57-387.62.06h-41.67l-.45-173.39v-72.04l42.12,20.9v178.77l.04,4.62,346.23-.41.16-399.16,200.63.12,1.18,264.11-.37,67.5-.69,628.39,432.35-2.27c99.04-.53,182.51-72.63,218.09-155.3,41.63-96.67,20.36-201.92-46.72-277.34-45.04-50.64-104.62-82.65-171.65-83.53l-132.13-1.76c-50.73-.67-92.64-35.5-115.21-80.14-23.4-46.27-17.66-101.9,12.49-143.19,28.82-39.51,74.68-56.55,126.28-56.47l210.42.25,101.74-119.19-346.8,1.68c-112.88,4.95-206.23,93.66-230.23,195.75-27.3,116.04,23.89,228.51,123.83,287.9,33.09,19.66,67.57,31.78,106.17,32.37l136.2,2.1c52.4.82,96.02,40.1,117.13,87.74,19.54,44.15,11.98,93.83-15.45,132.99-24.81,35.44-65.36,58.43-113.51,58.37l-326.53-.37c8.46-19.31,18.56-27.41,28.53-40.85l302.09-.76c53.91-.14,91.79-43.22,93.85-94.22,1.86-46.52-34.25-97.88-85.41-99.14l-130.08-3.19c-85.22-6.05-158.7-41.65-214.27-107.26-84.33-99.57-95.91-245.05-24.22-354.92,55.57-85.16,144.08-139.04,246.76-139.02l422.69.1-169.26,196.2c-4.64,5.37-11.91,7.71-19.01,7.71l-239.26-.2c-58.41-.06-98.51,61.35-84.33,118.05,9.85,39.36,43.78,75.33,85.14,75.74l113.76,1.08c86.53.84,166.07,35.99,222.54,100.35Z"/>
  <polygon class="cls-1" points="254.76 1007.94 254.76 850.34 246 856.47 142.36 929.05 131.81 936.43 131.81 1294.02 131.57 1585.32 254.48 1585.07 254.48 1584.99 254.76 1584.99 254.76 1284.19 254.99 1026.29 254.76 1007.94"/>
  <path class="cls-1" d="M715.18,713.29l8.3-17.37-23.81-11.4v-69.69l15.51,7.42,8.3-17.37-23.81-11.38v-59.55h-19.25v50.34l-133.05-66.81v-54.83h-19.27v55.37l-148.05,98.02v-50.48l-19.29,6.52v144.53l-99.22-58.55v-59.56h-19.25v61.35l-91.62,70.84v-46.13h-19.25v60.78l-27.1,20.62,11.67,15.31,15.43-11.75v65.3l-27.1,20.6,11.67,15.33,15.43-11.75v65.28l-27.1,20.62,11.67,15.31,137.46-105.74,107.3,54.12v-21.56l-99.22-50.03v-68.34l99.22,61.08,27.1-17.89.06.02,150.3-99.55,176.95,87.8,8.3-17.37-23.81-11.4v-65.54l15.51,7.42ZM242.3,838.82l-91.62,70.84v-65.28l91.62-70.84v65.28ZM242.3,749.34l-91.62,70.86v-65.3l91.62-70.84v65.28ZM360.77,806.12l-99.22-58.57v-68.32l99.22,58.55v68.34ZM528.1,695.96l-148.05,98v-53.95l12.41,5.64,7.97-17.52-10.24-4.66,137.91-90.97v63.46ZM528.1,609.08l-148.05,98v-67.59l148.05-98v67.59ZM680.42,762.2l-133.05-66.81v-65.54l133.05,66.81v65.54ZM680.42,675.32l-133.05-66.81v-69.69l133.05,66.81v69.69Z"/>
</svg>